<svg width="24" height="24" viewBox="0 0 24 24" fill="none" xmlns="http://www.w3.org/2000/svg">
<path d="M13.172 2H6C4.9 2 4 2.9 4 4V20C4 21.1 4.9 22 6 22H18C19.1 22 20 21.1 20 20V8.828C20 8.298 19.789 7.789 19.414 7.414L14.586 2.586C14.211 2.211 13.702 2 13.172 2ZM15.923 17.698C15.682 18.266 15.201 18.509 14.64 18.347C14.159 18.185 13.597 17.779 13.036 17.131C12.475 17.212 11.913 17.374 11.352 17.536C10.71 18.671 10.069 19.644 9.427 19.887C9.266 19.968 9.106 20 8.945 20C8.624 20 8.384 19.887 8.223 19.644C8.063 19.401 7.742 18.914 8.383 18.185C8.784 17.698 9.746 17.212 10.789 16.888C11.11 16.239 11.35 15.591 11.591 14.861C11.03 13.807 10.709 12.672 10.789 12.023C10.87 11.373 11.282 11 11.832 11C12.382 11 12.714 11.373 12.875 11.941C13.035 12.59 12.875 13.644 12.474 14.86C12.715 15.347 13.035 15.833 13.356 16.319C14.318 16.238 15.12 16.238 15.602 16.562C16.003 16.806 16.083 17.211 15.923 17.698ZM13 9V3.5L18.5 9H13Z" fill="#F42929"/>
</svg>
