<svg width="40" height="26" viewBox="0 0 40 26" fill="none" xmlns="http://www.w3.org/2000/svg">
<g clip-path="url(#clip0)">
<path d="M24.1655 17.5457L32.422 9.5349C30.707 2.75019 23.8955 -1.33938 17.208 0.400615C14.1965 1.18417 11.5808 3.07822 9.87158 5.713C9.99938 5.70973 24.1655 17.5457 24.1655 17.5457Z" fill="#0364B8"/>
<path d="M15.2528 7.22138L15.2525 7.22276C13.6748 6.23141 11.8553 5.70741 9.99958 5.70997C9.9567 5.70997 9.91457 5.71273 9.87177 5.71324C4.35184 5.78262 -0.0675647 10.3788 0.000782176 15.9791C0.0255579 18.0105 0.651203 19.9876 1.7966 21.654L14.1661 20.0823L23.6496 12.3241L15.2528 7.22138Z" fill="#0078D4"/>
<path d="M32.422 9.53545C32.2405 9.52316 32.0581 9.51465 31.8736 9.51465C30.7659 9.51355 29.6698 9.74309 28.6531 10.189L28.6529 10.1882L23.6494 12.3244L29.1654 19.2371L39.0265 21.6691C41.1545 17.661 39.677 12.6616 35.7264 10.5026C34.7056 9.94469 33.5789 9.61496 32.422 9.53549V9.53545H32.422Z" fill="#1490DF"/>
<path d="M1.79639 21.6542C3.66408 24.3785 6.72847 26.0022 9.99941 26.0004H31.8735C34.8616 26.0013 37.6089 24.3377 39.0265 21.6691L23.6494 12.3242L1.79639 21.6542Z" fill="#28A8EA"/>
</g>
<defs>
<clipPath id="clip0">
<rect width="40" height="26" fill="white"/>
</clipPath>
</defs>
</svg>
