<svg width="128" height="128" viewBox="0 0 128 128" fill="none" xmlns="http://www.w3.org/2000/svg">
<circle cx="64" cy="64" r="64" fill="#FFFBE8"/>
<path d="M89.6534 89.6534L89.6542 89.6525C103.736 75.5012 103.736 52.4984 89.6542 38.3471L89.6516 38.3445C82.5428 31.3054 73.2715 27.7498 63.9998 27.7498C54.7281 27.7498 45.4568 31.3054 38.348 38.3445L38.3454 38.3471C24.2636 52.4986 24.2636 75.502 38.415 89.6534C52.4985 103.806 75.5026 103.804 89.6534 89.6534ZM36.1659 36.1659C51.5081 20.8236 76.4915 20.8236 91.8337 36.1659C107.176 51.5081 107.176 76.4915 91.8337 91.8337C84.1623 99.5052 74.0473 103.375 63.9998 103.375C53.9523 103.375 43.8373 99.5052 36.1659 91.8337C20.8236 76.4915 20.8236 51.5081 36.1659 36.1659Z" fill="#FFD504" stroke="#FFF7EB"/>
<path d="M65.5625 61.9375V62.4375H66.0625H77.0625C77.9551 62.4375 78.625 63.1074 78.625 64C78.625 64.8926 77.9551 65.5625 77.0625 65.5625H66.0625H65.5625V66.0625V77.0625C65.5625 77.9551 64.8926 78.625 64 78.625C63.1074 78.625 62.4375 77.9551 62.4375 77.0625V66.0625V65.5625H61.9375H50.9375C50.0449 65.5625 49.375 64.8926 49.375 64C49.375 63.1074 50.0449 62.4375 50.9375 62.4375H61.9375H62.4375V61.9375V50.9375C62.4375 50.0449 63.1074 49.375 64 49.375C64.8926 49.375 65.5625 50.0449 65.5625 50.9375V61.9375Z" fill="#FFD504" stroke="#FFF7EB"/>
</svg>
